<svg width="46" height="46" viewBox="0 0 46 46" fill="none" xmlns="http://www.w3.org/2000/svg">
<circle cx="23" cy="23" r="22.5" fill="#41414B" stroke="#282829"/>
<path d="M13.4648 22.2229H13.8955C14.4428 22.223 14.8603 22.6685 14.8604 23.0481V29.675C14.8601 30.0546 14.4427 30.5002 13.8955 30.5002H13.4648C12.9176 30.5002 12.5003 30.0546 12.5 29.675V23.0481C12.5001 22.6685 12.9175 22.2229 13.4648 22.2229Z" fill="white" stroke="#FFFAFB"/>
<path d="M19.5167 18.8494H19.6027C20.241 18.8494 20.7403 19.3164 20.7403 19.8708V29.4783C20.7403 29.9856 20.2918 30.4998 19.6027 30.4998H19.5167C18.8785 30.4997 18.38 30.0327 18.38 29.4783V19.8708C18.38 19.3636 18.8277 18.8495 19.5167 18.8494Z" fill="white" stroke="#FFFAFB"/>
<path d="M25.2248 21.3795H25.6555C26.2471 21.3796 26.6204 21.8151 26.6204 22.2672V29.6129C26.6201 30.1091 26.2003 30.4996 25.6555 30.4996H25.2248C24.6333 30.4996 24.2602 30.0649 24.26 29.6129V22.2672C24.26 21.7708 24.6799 21.3795 25.2248 21.3795Z" fill="white" stroke="#FFFAFB"/>
<path d="M31.3197 17.1627C31.9711 17.1627 32.5003 17.6926 32.5004 18.3297V29.4166C32.5002 30.0207 32.0054 30.4996 31.3197 30.4996C30.6683 30.4995 30.14 29.9697 30.14 29.3326V18.3297C30.1401 17.6927 30.6684 17.1629 31.3197 17.1627Z" fill="white" stroke="#FFFAFB"/>
<path d="M12.336 17.1687C15.024 13.7108 17.46 12.0241 19.644 12.3614C21.744 12.6145 23.676 15.7349 25.776 15.9879C27.96 16.241 29.22 13.4578 31.908 10" stroke="#FFFAFB" stroke-width="2.8816" stroke-miterlimit="24" stroke-linecap="round"/>
</svg>
